<svg width="30" height="30" viewBox="0 0 30 30" fill="none" xmlns="http://www.w3.org/2000/svg">
<path fill-rule="evenodd" clip-rule="evenodd" d="M15 25C20.5228 25 25 20.5228 25 15C25 9.47715 20.5228 5 15 5C9.47715 5 5 9.47715 5 15C5 20.5228 9.47715 25 15 25ZM15.4697 11.4697C15.7626 11.1768 16.2374 11.1768 16.5303 11.4697L19.5303 14.4697C19.8232 14.7626 19.8232 15.2374 19.5303 15.5303L16.5303 18.5303C16.2374 18.8232 15.7626 18.8232 15.4697 18.5303C15.1768 18.2374 15.1768 17.7626 15.4697 17.4697L17.1893 15.75H11C10.5858 15.75 10.25 15.4142 10.25 15C10.25 14.5858 10.5858 14.25 11 14.25H17.1893L15.4697 12.5303C15.1768 12.2374 15.1768 11.7626 15.4697 11.4697Z" fill="white"/>
</svg>
