<svg width="143" height="38" viewBox="0 0 143 38" fill="none" xmlns="http://www.w3.org/2000/svg">
<g clip-path="url(#clip0_53_552)">
<path d="M53.5044 20.9C53.5044 21.375 53.5044 21.85 53.346 22.4833H41.1544C41.471 23.75 41.946 24.5416 42.7377 25.3333C43.5294 25.9666 44.6377 26.2833 45.9044 26.2833C47.646 26.2833 49.071 25.65 50.021 24.3833L52.7127 26.7583C51.1294 28.8166 48.7544 29.925 45.746 29.925C43.371 29.925 41.3127 29.1333 39.571 27.55C37.9877 25.9666 37.196 23.9083 37.196 21.2166C37.196 18.6833 37.9877 16.625 39.571 15.0416C41.1544 13.4583 43.0544 12.6666 45.4294 12.6666C47.8044 12.6666 49.8627 13.4583 51.2877 15.0416C52.7127 16.4666 53.5044 18.3666 53.5044 20.9ZM48.121 16.9416C47.4877 16.3083 46.5377 15.9916 45.4294 15.9916C44.321 15.9916 43.371 16.3083 42.7377 16.9416C41.946 17.575 41.471 18.3666 41.1544 19.475H49.546C49.3877 18.3666 48.9127 17.4166 48.121 16.9416Z" fill="white"/>
<path d="M68.3876 4.27502H72.1876V29.6084H68.546V27.3917C67.2793 29.1334 65.5376 29.925 63.1626 29.925C60.7876 29.925 58.8876 29.1334 57.3043 27.55C55.721 25.9667 55.0876 23.9084 55.0876 21.375C55.0876 18.8417 55.8793 16.7834 57.4626 15.2C59.046 13.6167 60.946 12.6667 63.1626 12.6667C65.5376 12.6667 67.121 13.4584 68.3876 14.8834V4.27502ZM60.3126 24.8584C61.2626 25.8084 62.371 26.2834 63.796 26.2834C65.221 26.2834 66.3293 25.8084 67.2793 24.8584C68.2293 23.9084 68.7043 22.6417 68.7043 21.2167C68.7043 19.7917 68.2293 18.3667 67.2793 17.4167C66.3293 16.4667 65.221 15.9917 63.796 15.9917C62.371 15.9917 61.2626 16.4667 60.3126 17.4167C59.3626 18.3667 58.8876 19.6334 58.8876 21.2167C58.8876 22.6417 59.3626 23.9084 60.3126 24.8584Z" fill="white"/>
<path d="M88.0209 12.6666H91.821V27.7083C91.821 30.4 91.1876 32.6166 89.7626 34.2C88.3376 35.7833 86.2793 36.575 83.2709 36.575C80.7376 36.575 78.3626 35.9416 76.4626 34.8333L77.4126 31.5083C78.5209 32.1416 79.4709 32.4583 80.2626 32.775C81.0543 33.0916 82.0043 33.25 83.1126 33.25C84.696 33.25 85.9626 32.775 86.7543 31.9833C87.5459 31.1916 88.0209 30.2416 88.0209 28.975V27.2333C86.7543 28.6583 85.0126 29.2916 82.9543 29.2916C80.5793 29.2916 78.6793 28.5 77.0959 26.9166C75.5126 25.3333 74.7209 23.4333 74.7209 20.9C74.7209 18.3666 75.5126 16.4666 76.9376 14.725C78.3626 13.1416 80.2626 12.35 82.6376 12.35C84.6959 12.35 86.4376 12.9833 87.8626 14.4083V12.6666H88.0209ZM83.4293 25.65C84.8543 25.65 85.9626 25.175 86.7543 24.225C87.7043 23.275 88.0209 22.1666 88.0209 20.7416C88.0209 19.3166 87.5459 18.2083 86.7543 17.2583C85.8043 16.3083 84.6959 15.8333 83.4293 15.8333C82.0043 15.8333 80.896 16.3083 79.946 17.2583C78.996 18.2083 78.6793 19.3166 78.6793 20.7416C78.6793 22.1666 79.1543 23.4333 79.946 24.225C80.896 25.3333 82.0043 25.65 83.4293 25.65Z" fill="white"/>
<path d="M109.871 20.9C109.871 21.375 109.871 21.85 109.713 22.4833H97.3626C97.6793 23.75 98.1543 24.7 99.1043 25.3333C99.896 25.9666 101.004 26.2833 102.271 26.2833C104.013 26.2833 105.438 25.65 106.546 24.225L109.238 26.6C107.654 28.8166 105.279 29.7666 102.113 29.7666C99.5793 29.7666 97.521 28.975 95.9376 27.3916C94.3543 25.8083 93.5626 23.5916 93.5626 21.0583C93.5626 18.525 94.3543 16.3083 95.9376 14.725C97.521 13.1416 99.421 12.35 101.796 12.35C104.329 12.35 106.229 13.1416 107.813 14.725C109.238 16.3083 109.871 18.3666 109.871 20.9ZM104.646 16.7833C104.013 16.15 103.063 15.8333 101.954 15.8333C100.846 15.8333 99.896 16.15 99.1043 16.7833C98.3126 17.4166 97.8376 18.2083 97.521 19.3166H105.913C105.754 18.3666 105.279 17.4166 104.646 16.7833Z" fill="#DAA520"/>
<path d="M121.746 12.35H122.221V16.7833C121.588 16.7833 121.271 16.7833 121.113 16.7833C119.688 16.7833 118.579 17.2583 117.788 18.2083C116.996 19.1583 116.521 20.2666 116.521 21.6916V29.7666H112.563V12.6666H116.521V15.2C117.788 13.3 119.529 12.35 121.746 12.35Z" fill="#DAA520"/>
<path d="M133.779 12.35C136.154 12.35 138.054 13.1416 139.638 14.8833C141.221 16.4666 142.013 18.6833 142.013 21.2166C142.013 23.75 141.221 25.9666 139.638 27.55C138.054 29.1333 136.154 29.925 133.779 29.925C131.404 29.925 129.663 29.1333 128.396 27.55V36.575H124.438V12.6666H128.396V14.725C129.663 13.1416 131.404 12.35 133.779 12.35ZM129.663 24.8583C130.613 25.8083 131.721 26.2833 133.146 26.2833C134.571 26.2833 135.679 25.8083 136.629 24.8583C137.579 23.9083 138.054 22.6416 138.054 21.2166C138.054 19.6333 137.579 18.3666 136.629 17.4166C135.679 16.3083 134.571 15.8333 133.146 15.8333C131.721 15.8333 130.613 16.3083 129.663 17.4166C128.713 18.3666 128.238 19.6333 128.238 21.2166C128.238 22.8 128.713 23.9083 129.663 24.8583Z" fill="#DAA520"/>
<path d="M32.446 10.2917V25.9667C32.446 26.7584 31.971 27.7084 31.1793 28.025L19.7793 34.5167L17.5627 35.9417C16.771 36.4167 15.821 36.4167 15.0293 35.9417L12.8127 34.675L1.41266 28.1834C0.620996 27.55 0.145996 26.7584 0.145996 25.9667V10.2917C0.145996 9.50002 0.620996 8.55002 1.41266 8.23336L15.0293 0.475024C15.821 2.44081e-05 16.771 2.44081e-05 17.5627 0.475024L31.1793 8.23336C31.971 8.55002 32.446 9.34169 32.446 10.2917Z" fill="#DAA520"/>
<path d="M15.6627 16.15C14.3961 16.15 13.2877 15.0417 13.2877 13.775C13.2877 12.5084 14.3961 11.4 15.6627 11.4C16.9294 11.4 18.0377 12.5084 18.0377 13.775C18.0377 15.0417 16.9294 16.15 15.6627 16.15ZM15.6627 12.6667C15.0294 12.6667 14.5544 13.1417 14.5544 13.775C14.5544 14.4084 15.0294 14.8834 15.6627 14.8834C16.2961 14.8834 16.7711 14.4084 16.7711 13.775C16.6127 13.1417 16.1377 12.6667 15.6627 12.6667Z" fill="white"/>
<path d="M14.396 13.1417H2.99597V14.4084H14.396V13.1417Z" fill="white"/>
<path d="M15.3459 24.8583C14.0793 24.8583 12.9709 23.7499 12.9709 22.4833C12.9709 21.2166 14.0793 20.1083 15.3459 20.1083C16.6126 20.1083 17.7209 21.2166 17.7209 22.4833C17.7209 23.7499 16.6126 24.8583 15.3459 24.8583ZM15.3459 21.3749C14.7126 21.3749 14.2376 21.8499 14.2376 22.4833C14.2376 23.1166 14.7126 23.5916 15.3459 23.5916C15.9793 23.5916 16.4543 23.1166 16.4543 22.4833C16.4543 21.8499 15.9793 21.3749 15.3459 21.3749Z" fill="white"/>
<path d="M13.6043 21.85H2.99597V23.1166H13.6043V21.85Z" fill="white"/>
<path d="M19.9376 20.425C18.671 20.425 17.5626 19.3167 17.5626 18.05C17.5626 16.7834 18.671 15.675 19.9376 15.675C21.2043 15.675 22.3126 16.7834 22.3126 18.05C22.3126 19.475 21.2043 20.425 19.9376 20.425ZM19.9376 17.1C19.3043 17.1 18.8293 17.575 18.8293 18.2084C18.8293 18.8417 19.3043 19.3167 19.9376 19.3167C20.571 19.3167 21.046 18.8417 21.046 18.2084C21.046 17.575 20.571 17.1 19.9376 17.1Z" fill="white"/>
<path d="M18.8293 17.4166H2.99597V18.6833H18.8293V17.4166Z" fill="white"/>
<path d="M27.2209 19.7916L28.1709 20.425C28.1709 20.7416 28.0126 21.2166 27.8543 21.5333C27.6959 21.85 27.5376 22.325 27.3793 22.6416H26.2709C25.0043 22.6416 24.0543 23.9083 24.6876 25.1749L25.3209 26.125C24.8459 26.7583 24.2126 27.2333 23.5793 27.7083L22.6293 27.075C21.5209 26.2833 20.0959 27.075 19.9376 28.5V29.6083C19.1459 29.925 18.3543 30.0833 17.5626 30.0833L17.0876 28.975C16.4543 27.8666 14.8709 27.7083 14.0793 28.8166L13.4459 29.7666C13.1293 29.7666 12.6543 29.6083 12.3376 29.45C12.0209 29.2916 11.5459 29.1333 11.2293 28.975V27.8666C11.2293 26.6 9.80427 25.65 8.69594 26.2833L7.58761 26.9166C6.95427 26.4416 6.47927 25.8083 6.00427 25.1749L6.47927 24.3833H11.2293C12.8126 25.65 14.3959 26.2833 15.9793 26.2833C20.7293 26.2833 24.5293 22.325 24.2126 17.4166C23.8959 13.3 20.5709 10.1333 16.4543 9.81662C14.7126 9.65828 12.8126 10.2916 11.3876 11.2416H7.42927C7.42927 11.0833 7.42927 10.925 7.27094 10.925L6.63761 9.81662C7.11261 9.18328 7.74594 8.70828 8.37927 8.23328L9.32927 8.86662C10.4376 9.65828 11.8626 8.86662 12.0209 7.44162V6.33328C12.8126 6.01662 13.6043 5.85828 14.3959 5.69995L14.8709 6.80828C15.5043 7.91662 17.2459 7.91662 17.8793 6.80828L18.5126 5.85828C18.8293 5.85828 19.3043 6.01662 19.6209 6.17495C20.0959 6.33328 20.4126 6.33328 20.8876 6.49162V7.59995C20.8876 8.86662 22.3126 9.81662 23.4209 9.18328L24.5293 8.54995C25.1626 9.02495 25.6376 9.65828 26.1126 10.2916L25.4793 11.2416C24.6876 12.35 25.4793 13.775 26.9043 13.775H28.0126C28.3293 14.5666 28.4876 15.3583 28.4876 16.15L27.3793 16.625C26.2709 17.575 26.1126 19.1583 27.2209 19.7916Z" fill="white"/>
</g>
<defs>
<clipPath id="clip0_53_552">
<rect width="142.5" height="38" fill="white" transform="translate(0.145996)"/>
</clipPath>
</defs>
</svg>
