<svg width="131" height="39" viewBox="0 0 131 39" fill="none" xmlns="http://www.w3.org/2000/svg">
<g clip-path="url(#clip0_53_489)">
<path d="M46.2926 9.37301C45.7431 9.91309 45.0869 10.18 44.327 10.18C43.5671 10.18 42.9203 9.90995 42.3802 9.37301C41.8401 8.83607 41.5732 8.1861 41.5732 7.42622C41.5732 6.66635 41.8433 6.05405 42.3802 5.51712C42.9172 4.98018 43.5671 4.71014 44.327 4.71014C45.0869 4.71014 45.74 4.98018 46.2926 5.51712C46.8421 6.05719 47.1184 6.69147 47.1184 7.42622C47.1184 8.16098 46.8421 8.83293 46.2926 9.37301Z" fill="white"/>
<path d="M46.3868 12.8239H42.2734V30.7437H46.3868V12.8239Z" fill="white"/>
<path d="M61.6252 30.7437L57.584 25.0603L57.4365 25.0509L53.4016 30.7437H48.8486L55.182 21.6786L48.8832 12.8239H53.6559L57.5746 18.4162L57.4522 18.4256L61.3677 12.8239H66.1059L59.8448 21.6535L66.2158 30.7437H61.6252Z" fill="white"/>
<path d="M83.291 21.5624C83.291 22.002 83.2533 22.5546 83.1811 23.214H70.1093C70.3794 24.4857 70.9665 25.4842 71.8709 26.2064C72.7752 26.9286 73.8899 27.2897 75.2118 27.2897C77.0707 27.2897 78.5653 26.5926 79.6925 25.1953L82.5562 27.6539C80.8167 29.9053 78.2953 31.0325 74.992 31.0325C72.3481 31.0325 70.1627 30.1816 68.4357 28.4797C66.7087 26.7779 65.8484 24.5454 65.8484 21.779C65.8484 19.0127 66.6742 16.8461 68.3258 15.1317C69.9775 13.4173 72.0655 12.5601 74.5869 12.5601C77.1083 12.5601 79.3095 13.3984 80.9014 15.0752C82.4934 16.7519 83.2878 18.9122 83.2878 21.5561L83.291 21.5624ZM77.6359 17.248C76.9011 16.6012 75.9591 16.2747 74.8099 16.2747C73.6606 16.2747 72.6747 16.5918 71.8552 17.2292C71.0356 17.8666 70.4767 18.7584 70.1847 19.9107H79.1462C78.8762 18.7866 78.3738 17.898 77.6421 17.248H77.6359Z" fill="white"/>
<path d="M95.8101 12.5663H96.3251V17.157C95.6877 17.1068 95.2732 17.0848 95.0754 17.0848C93.5588 17.0848 92.3624 17.5683 91.4958 18.5354C90.626 19.5026 90.1927 20.746 90.1927 22.2626V30.7437H86.0793V12.8238H90.1927V15.5399H90.2304C91.6748 13.5554 93.5368 12.5663 95.8133 12.5663H95.8101Z" fill="white"/>
<path d="M98.052 31.0357C97.267 31.0357 96.6076 30.7719 96.0706 30.2476C95.5306 29.7232 95.2637 29.0795 95.2637 28.3196C95.2637 27.5597 95.54 26.9129 96.0895 26.3728C96.639 25.8359 97.2952 25.5659 98.0551 25.5659C98.815 25.5659 99.4618 25.8359 100.002 26.3728C100.539 26.9129 100.809 27.5597 100.809 28.3196C100.809 29.0795 100.539 29.72 100.002 30.2476C99.4618 30.7751 98.815 31.0357 98.0551 31.0357H98.052Z" fill="#17E29F"/>
<path d="M117.366 12.8238H121.479V30.7437H117.551V28.3573H117.479C116.157 30.1439 114.261 31.0388 111.786 31.0388C109.312 31.0388 107.189 30.1942 105.563 28.5049C103.933 26.8156 103.12 24.6019 103.12 21.8575C103.12 19.1132 103.939 16.9435 105.578 15.1914C107.218 13.4424 109.274 12.5663 111.749 12.5663C114.223 12.5663 115.947 13.3733 117.294 14.9904H117.366V12.8238ZM112.446 27.2928C113.865 27.2928 115.071 26.7904 116.063 25.7888C117.055 24.784 117.551 23.4872 117.551 21.8952C117.551 20.3032 117.068 18.9688 116.101 17.8917C115.133 16.8147 113.915 16.2747 112.446 16.2747C110.976 16.2747 109.752 16.7896 108.775 17.8164C107.795 18.8432 107.305 20.2028 107.305 21.8921C107.305 23.484 107.783 24.7809 108.737 25.7856C109.692 26.7904 110.929 27.2897 112.446 27.2897V27.2928Z" fill="#A185FF"/>
<path d="M129.464 9.37301C128.915 9.91309 128.259 10.18 127.499 10.18C126.739 10.18 126.092 9.90995 125.552 9.37301C125.012 8.83607 124.745 8.1861 124.745 7.42622C124.745 6.66635 125.015 6.05405 125.552 5.51712C126.089 4.98018 126.739 4.71014 127.499 4.71014C128.259 4.71014 128.912 4.98018 129.464 5.51712C130.014 6.05719 130.29 6.69147 130.29 7.42622C130.29 8.16098 130.014 8.83293 129.464 9.37301Z" fill="#A185FF"/>
<path d="M129.556 12.8239H125.442V30.7437H129.556V12.8239Z" fill="#A185FF"/>
<path d="M33.6794 11.3543V16.664H0V11.3543C0 10.5285 0.411337 9.87224 1.07073 9.45777L15.7281 1.06147C16.4692 0.646991 17.2919 0.646991 17.9512 1.06147L32.6087 9.45777C33.2649 9.87224 33.6794 10.6133 33.6794 11.3543Z" fill="#A185FF"/>
<path d="M33.6794 17.3046V28.0684C33.6794 28.8911 33.2649 29.5505 32.6087 29.9618L17.9512 38.4429C17.2102 38.8542 16.3844 38.8542 15.7281 38.4429L1.07073 30.0435C0.411337 29.6321 0 28.8911 0 28.15V17.3046H33.6794Z" fill="#17E29F"/>
<path d="M29.0416 13.6654V25.7794C29.0416 26.376 28.7433 26.8533 28.266 27.1516L17.6435 33.2965C17.1065 33.5948 16.5099 33.5948 16.0327 33.2965L5.41327 27.2112C4.93599 26.9129 4.6377 26.376 4.6377 25.8391V13.6654C4.6377 13.0688 4.93599 12.5915 5.41327 12.2932L16.0327 6.20792C16.5696 5.90962 17.1662 5.90962 17.6435 6.20792L28.266 12.2932C28.7433 12.5915 29.0416 13.1284 29.0416 13.6654Z" fill="#131A2A"/>
<path d="M14.4752 18.8306C14.4752 17.5022 13.3984 16.4254 12.07 16.4254C10.7416 16.4254 9.66479 17.5022 9.66479 18.8306V20.6737C9.66479 22.0021 10.7416 23.079 12.07 23.079C13.3984 23.079 14.4752 22.0021 14.4752 20.6737V18.8306Z" fill="white"/>
<path d="M24.0145 18.8306C24.0145 17.5022 22.9377 16.4254 21.6093 16.4254C20.281 16.4254 19.2041 17.5022 19.2041 18.8306V20.6737C19.2041 22.0021 20.281 23.079 21.6093 23.079C22.9377 23.079 24.0145 22.0021 24.0145 20.6737V18.8306Z" fill="white"/>
</g>
<defs>
<clipPath id="clip0_53_489">
<rect width="130.29" height="38" fill="white" transform="translate(0 0.75061)"/>
</clipPath>
</defs>
</svg>
