<svg width="204" height="38" viewBox="0 0 204 38" fill="none" xmlns="http://www.w3.org/2000/svg">
<path d="M54.5572 12.2143H58.6286V29.8571H54.8286V27.4143C53.4715 29.3143 51.5715 30.1286 49.1286 30.1286C46.6858 30.1286 44.5144 29.3143 42.8858 27.6857C41.2572 25.7857 40.7144 23.6143 40.7144 20.9C40.7144 18.1857 41.5286 16.0143 43.1572 14.3857C44.7858 12.7571 46.6858 11.6714 49.1286 11.6714C51.5715 11.6714 53.2001 12.4857 54.5572 14.1143H54.8286V12.2143H54.5572ZM49.6715 26.3286C51.0286 26.3286 52.3858 25.7857 53.2001 24.9714C54.2858 23.8857 54.5572 22.8 54.5572 21.1714C54.5572 19.5429 54.0144 18.4571 53.2001 17.3714C52.1144 16.2857 51.0286 15.7429 49.6715 15.7429C48.3144 15.7429 46.9572 16.2857 46.1429 17.3714C45.0572 18.4571 44.7858 19.8143 44.7858 21.4429C44.7858 23.0714 45.3286 24.1571 46.1429 25.2429C47.2286 25.7857 48.3144 26.3286 49.6715 26.3286Z" fill="white"/>
<path d="M75.1858 12.2143H79.2572V27.9571C79.2572 30.6714 78.443 32.8429 77.0858 34.7429C75.7287 36.3714 73.2858 37.1857 70.3001 37.1857C67.5858 37.1857 65.143 36.6429 62.9715 35.2857L64.0572 31.7571C65.143 32.3 66.2287 32.8429 67.043 33.1143C67.8572 33.3857 68.943 33.3857 70.0287 33.3857C71.6572 33.3857 73.0144 33.1143 73.8287 32.3C74.643 31.4857 75.1858 30.4 75.1858 29.3143V27.4143C73.8287 28.7714 71.9287 29.5857 69.7572 29.5857C67.3144 29.5857 65.143 28.7714 63.5144 27.1429C61.8858 25.5143 61.0715 23.6143 61.0715 20.9C61.0715 18.1857 61.8858 16.2857 63.5144 14.6571C65.143 13.0286 67.043 12.2143 69.4858 12.2143C71.6572 12.2143 73.5572 13.0286 74.9144 14.3857V12.2143H75.1858ZM70.3001 25.7857C71.6572 25.7857 73.0144 25.2429 73.8287 24.4286C74.643 23.3429 75.1858 22.2571 75.1858 20.9C75.1858 19.5429 74.643 18.1857 73.8287 17.3714C72.743 16.5571 71.6572 16.0143 70.3001 16.0143C68.943 16.0143 67.5858 16.5571 66.7715 17.3714C65.6858 18.1857 65.143 19.2714 65.143 20.9C65.143 22.5286 65.6858 23.6143 66.5001 24.4286C67.8572 25.2429 68.943 25.7857 70.3001 25.7857Z" fill="white"/>
<path d="M87.1286 8.95714C86.5857 9.5 86.0429 9.77143 85.2286 9.77143C84.4143 9.77143 83.8714 9.5 83.3286 8.95714C82.7857 8.41429 82.5143 7.87143 82.5143 7.05714C82.5143 6.24286 82.7857 5.7 83.3286 5.15714C83.8714 4.61429 84.4143 4.34286 85.2286 4.34286C86.0429 4.34286 86.5857 4.61429 87.1286 5.15714C87.6714 5.7 87.9429 6.24286 87.9429 7.05714C87.9429 7.87143 87.6714 8.41429 87.1286 8.95714ZM83.0571 29.8571V12.2143H87.1286V29.8571H83.0571Z" fill="white"/>
<path d="M91.4714 29.8571V3.52857H95.5429V29.8571H91.4714Z" fill="white"/>
<path d="M115.629 20.9C115.629 21.1714 115.629 21.9857 115.629 22.5286H102.871C103.143 23.6143 103.686 24.7 104.5 25.5143C105.314 26.3286 106.4 26.6 107.757 26.6C109.657 26.6 111.014 26.0571 112.1 24.7L114.814 27.1429C113.186 29.3143 110.743 30.4 107.486 30.4C104.771 30.4 102.6 29.5857 100.971 27.9571C99.3429 26.3286 98.5286 24.1571 98.5286 21.4429C98.5286 18.7286 99.3429 16.5571 100.971 14.9286C102.6 13.3 104.5 12.4857 107.214 12.4857C109.929 12.4857 111.829 13.3 113.457 14.9286C115.086 16.0143 115.629 18.1857 115.629 20.9ZM110.2 16.5571C109.386 16.0143 108.571 15.4714 107.486 15.4714C106.4 15.4714 105.314 15.7429 104.5 16.2857C103.686 16.8286 103.143 17.6429 102.871 19H111.557C111.286 18.1857 110.743 17.1 110.2 16.5571Z" fill="white"/>
<path d="M126.757 30.1286C124.043 30.1286 121.871 29.3143 119.971 27.6857C118.343 26.0571 117.257 23.8857 117.257 21.1714C117.257 18.4571 118.071 16.2857 119.971 14.6571C121.6 13.0286 124.043 11.9429 126.757 11.9429C129.471 11.9429 131.643 12.7571 133.271 14.3857C134.9 16.0143 135.986 18.1857 135.986 20.9C135.986 23.6143 135.171 25.7857 133.271 27.4143C131.643 29.3143 129.471 30.1286 126.757 30.1286ZM126.757 26.3286C128.114 26.3286 129.471 25.7857 130.286 24.7C131.371 23.6143 131.643 22.5286 131.643 20.9C131.643 19.2714 131.1 17.9143 130.286 17.1C129.2 16.0143 128.114 15.4714 126.757 15.4714C125.4 15.4714 124.043 16.0143 122.957 17.1C121.871 18.1857 121.6 19.5429 121.6 20.9C121.6 22.5286 122.143 23.6143 122.957 24.7C124.043 25.7857 125.129 26.3286 126.757 26.3286Z" fill="#4A90E2"/>
<path d="M139.243 29.8571V15.7429H137.343V12.2143H139.243V9.22857C139.243 7.32857 139.786 5.7 140.6 4.88571C141.414 3.8 142.771 3.25714 144.671 3.25714C146.3 3.25714 147.929 3.52857 149.014 4.34286L148.2 7.87143C146.843 7.32857 146.029 7.05714 145.214 7.05714C144.129 7.05714 143.314 7.87143 143.314 9.77143V12.4857H147.657V16.0143H143.314V29.8571H139.243Z" fill="#4A90E2"/>
<path d="M150.1 29.8571V15.7429H148.2V12.2143H150.1V9.22857C150.1 7.32857 150.643 5.7 151.457 4.88571C152.272 3.8 153.629 3.25714 155.529 3.25714C157.157 3.25714 158.786 3.52857 159.872 4.34286L159.057 7.87143C157.7 7.32857 156.886 7.05714 156.072 7.05714C154.986 7.05714 154.172 7.87143 154.172 9.77143V12.4857H158.514V16.0143H154.172V29.8571H150.1Z" fill="#4A90E2"/>
<path d="M164.757 8.95714C164.214 9.5 163.672 9.77143 162.857 9.77143C162.043 9.77143 161.5 9.5 160.957 8.95714C160.414 8.41429 160.143 7.87143 160.143 7.05714C160.143 6.24286 160.414 5.7 160.957 5.15714C161.5 4.61429 162.043 4.34286 162.857 4.34286C163.672 4.34286 164.214 4.61429 164.757 5.15714C165.3 5.7 165.572 6.24286 165.572 7.05714C165.572 7.87143 165.3 8.41429 164.757 8.95714ZM160.686 29.8571V12.2143H164.757V29.8571H160.686Z" fill="#4A90E2"/>
<path d="M176.7 30.1286C173.986 30.1286 171.814 29.3143 170.186 27.6857C168.557 26.0571 167.743 23.8857 167.743 21.1714C167.743 18.4571 168.557 16.2857 170.457 14.6571C172.357 13.0286 174.257 12.2143 176.971 12.2143C178.329 12.2143 179.686 12.4857 181.043 13.0286C182.4 13.5714 183.486 14.3857 184.3 15.4714L181.586 17.9143C180.5 16.5571 178.872 16.0143 177.243 16.0143C175.614 16.0143 174.529 16.5571 173.443 17.3714C172.357 18.4571 172.086 19.5429 172.086 21.1714C172.086 22.8 172.629 24.1571 173.443 24.9714C174.529 26.0571 175.614 26.3286 177.243 26.3286C179.143 26.3286 180.5 25.7857 181.586 24.4286L184.3 26.8714C183.486 27.6857 182.4 28.5 181.043 29.0429C179.957 29.8571 178.329 30.1286 176.7 30.1286Z" fill="#4A90E2"/>
<path d="M202.757 20.9C202.757 21.1714 202.757 21.9857 202.757 22.5286H190C190.271 23.6143 190.814 24.7 191.629 25.5143C192.443 26.3286 193.529 26.6 194.886 26.6C196.786 26.6 198.143 26.0571 199.229 24.7L201.943 27.1429C200.314 29.3143 197.871 30.4 194.614 30.4C191.9 30.4 189.729 29.5857 188.1 27.9571C186.2 26.3286 185.386 24.1571 185.386 21.4429C185.386 18.7286 186.2 16.5571 187.829 14.9286C189.457 13.3 191.629 12.4857 194.071 12.4857C196.514 12.4857 198.686 13.3 200.314 14.9286C201.943 16.0143 202.757 18.1857 202.757 20.9ZM197.057 16.5571C196.243 16.0143 195.429 15.4714 194.343 15.4714C193.257 15.4714 192.171 15.7429 191.357 16.2857C190.543 16.8286 190 17.6429 189.729 19H198.414C198.414 18.1857 197.871 17.1 197.057 16.5571Z" fill="#4A90E2"/>
<path d="M0.814331 10.8571V27.1429C0.814331 27.9571 1.08576 28.5 1.90005 29.0429L16.2858 37.1857C16.8286 37.4571 17.6429 37.4571 18.4572 37.1857L32.8429 28.7714C33.3858 28.5 33.9286 27.6857 33.9286 26.8714V10.8571C33.9286 10.0429 33.6572 9.5 32.8429 8.95714L18.4572 0.814285C17.9143 0.271428 17.1 0.271428 16.2858 0.542857L1.90005 8.68571C1.08576 9.22857 0.814331 10.0429 0.814331 10.8571Z" fill="#4A90E2"/>
<path d="M22.2572 16.8286L20.9 19.2714L17.6429 13.3L8.95715 27.9571H5.97144L7.05715 26.3286L8.41429 23.8857L9.22858 22.5286L10.8572 20.0857L11.4 19L12.7571 16.5571L16.2857 10.8571L17.6429 8.14286L19 10.8571L22.2572 16.8286Z" fill="white"/>
<path d="M27.9572 27.6857H25.243L23.0715 23.6143L24.4287 21.1714L27.9572 27.6857Z" fill="white"/>
<path d="M24.1572 20.0857L22.8 22.8L21.4429 20.0857L21.9857 19L22.8 17.3714L24.1572 20.0857Z" fill="white"/>
<path d="M21.1714 25.5143L19.8143 27.9571L18.4571 25.2429L16.5571 21.9857L17.9143 19.5429L19.5428 22.8L21.1714 25.5143Z" fill="white"/>
<path d="M28.2286 13.3L24.1572 20.0857L22.8 22.8L21.1714 25.5143L19.8143 27.9571L18.4572 25.2429L19 23.8857L19.8143 22.5286L21.1714 20.0857L21.7143 19L22.5286 17.3714L23.0714 16.5571L26.8714 10.8571L28.2286 13.3Z" fill="white"/>
<path d="M28.2286 13.3L24.1572 20.0857L22.8 22.8L21.1714 25.5143L19.8143 27.9571L18.4572 25.2429L19 23.8857L19.8143 22.5286L21.1714 20.0857L21.7143 19L22.5286 17.3714L23.0714 16.5571L26.8714 10.8571L28.2286 13.3Z" fill="white"/>
<path d="M11.1287 15.4714L9.77152 17.9143H4.61438L5.97152 15.4714H11.1287Z" fill="white"/>
<path d="M8.68581 15.4714L7.32867 17.9143H4.61438L5.97152 15.4714H8.68581Z" fill="white"/>
<path d="M13.5714 11.6714L11.9429 14.1143H8.41431L9.77145 11.6714H13.5714Z" fill="white"/>
<path d="M11.4 11.6714L10.0429 14.1143H8.41431L9.77145 11.6714H11.4Z" fill="white"/>
<path d="M15.2001 7.87143L13.8429 10.3143H12.2144L13.5715 7.87143H15.2001Z" fill="white"/>
<path d="M15.7429 7.87143L14.3858 10.3143H12.2144L13.5715 7.87143H15.7429Z" fill="white"/>
</svg>
