<svg width="108" height="23" viewBox="0 0 108 23" fill="none" xmlns="http://www.w3.org/2000/svg">
<path d="M91.7754 22.4375C89.7246 22.4375 88.0384 22.2962 86.7168 22.0137C85.3952 21.7402 84.3607 21.2298 83.6133 20.4824C82.875 19.735 82.3555 18.6595 82.0547 17.2559C81.763 15.8522 81.6172 14.0247 81.6172 11.7734V11.2266C81.6172 9.36719 81.7083 7.80859 81.8906 6.55078C82.0729 5.28385 82.3874 4.25391 82.834 3.46094C83.2806 2.66797 83.8867 2.06185 84.6523 1.64258C85.4271 1.22331 86.3978 0.940755 87.5645 0.794922C88.7311 0.639974 90.1348 0.5625 91.7754 0.5625H97.2852C98.9258 0.5625 100.329 0.639974 101.496 0.794922C102.663 0.940755 103.629 1.22331 104.395 1.64258C105.169 2.06185 105.78 2.66797 106.227 3.46094C106.673 4.25391 106.988 5.28385 107.17 6.55078C107.352 7.80859 107.443 9.36719 107.443 11.2266V11.7734C107.443 14.0247 107.293 15.8522 106.992 17.2559C106.701 18.6595 106.181 19.735 105.434 20.4824C104.695 21.2298 103.665 21.7402 102.344 22.0137C101.022 22.2962 99.3359 22.4375 97.2852 22.4375H91.7754ZM91.7754 20.168H97.2852C98.5885 20.168 99.6868 20.1224 100.58 20.0312C101.473 19.9401 102.198 19.7441 102.754 19.4434C103.319 19.1426 103.747 18.6868 104.039 18.0762C104.34 17.4655 104.545 16.6497 104.654 15.6289C104.764 14.6081 104.818 13.3229 104.818 11.7734V11.2266C104.818 9.6224 104.764 8.30078 104.654 7.26172C104.545 6.22266 104.34 5.40234 104.039 4.80078C103.747 4.19922 103.319 3.76172 102.754 3.48828C102.198 3.20573 101.473 3.02799 100.58 2.95508C99.6868 2.87305 98.5885 2.83203 97.2852 2.83203H91.7754C90.472 2.83203 89.3737 2.87305 88.4805 2.95508C87.5872 3.02799 86.8581 3.20573 86.293 3.48828C85.737 3.76172 85.3086 4.19922 85.0078 4.80078C84.7161 5.40234 84.5156 6.22266 84.4062 7.26172C84.2969 8.30078 84.2422 9.6224 84.2422 11.2266V11.7734C84.2422 13.3229 84.2969 14.6081 84.4062 15.6289C84.5156 16.6497 84.7161 17.4655 85.0078 18.0762C85.3086 18.6868 85.737 19.1426 86.293 19.4434C86.8581 19.7441 87.5872 19.9401 88.4805 20.0312C89.3737 20.1224 90.472 20.168 91.7754 20.168Z" fill="white"/>
<path d="M51.8398 11.7734V11.2266C51.8398 9.36719 51.931 7.80859 52.1133 6.55078C52.2956 5.28385 52.61 4.25391 53.0566 3.46094C53.5033 2.66797 54.1094 2.06185 54.875 1.64258C55.6497 1.22331 56.6204 0.940755 57.7871 0.794922C58.9538 0.639974 60.3574 0.5625 61.998 0.5625H67.1387C69.2897 0.5625 71.0352 0.644531 72.375 0.808594C73.724 0.972656 74.7585 1.28711 75.4785 1.75195C76.2077 2.2168 76.709 2.89583 76.9824 3.78906C77.2559 4.67318 77.3926 5.83529 77.3926 7.27539H74.7676C74.7676 6.19076 74.6719 5.34766 74.4805 4.74609C74.2891 4.13542 73.929 3.69792 73.4004 3.43359C72.8717 3.16016 72.1016 2.99154 71.0898 2.92773C70.0872 2.86393 68.7702 2.83203 67.1387 2.83203H61.998C60.6947 2.83203 59.5964 2.87305 58.7031 2.95508C57.8099 3.02799 57.0807 3.20573 56.5156 3.48828C55.9596 3.76172 55.5312 4.19922 55.2305 4.80078C54.9388 5.40234 54.7383 6.22266 54.6289 7.26172C54.5195 8.30078 54.4648 9.6224 54.4648 11.2266V11.7734C54.4648 13.3229 54.5195 14.6081 54.6289 15.6289C54.7383 16.6497 54.9388 17.4655 55.2305 18.0762C55.5312 18.6868 55.9596 19.1426 56.5156 19.4434C57.0807 19.7441 57.8099 19.9401 58.7031 20.0312C59.5964 20.1224 60.6947 20.168 61.998 20.168H68.0547C69.5586 20.168 70.7708 20.1087 71.6914 19.9902C72.612 19.8626 73.3092 19.5983 73.7832 19.1973C74.2663 18.7871 74.5898 18.1673 74.7539 17.3379C74.918 16.4993 75 15.3691 75 13.9473V13.1406H64.9512V10.9531H77.625V13.9473C77.625 15.7246 77.4746 17.1693 77.1738 18.2812C76.873 19.3932 76.3626 20.2546 75.6426 20.8652C74.9316 21.4668 73.9564 21.877 72.7168 22.0957C71.4863 22.3236 69.9323 22.4375 68.0547 22.4375H61.998C59.9473 22.4375 58.2611 22.2962 56.9395 22.0137C55.6178 21.7402 54.5833 21.2298 53.8359 20.4824C53.0977 19.735 52.5781 18.6595 52.2773 17.2559C51.9857 15.8522 51.8398 14.0247 51.8398 11.7734Z" fill="white"/>
<path d="M32.6582 22.4375C30.6074 22.4375 28.9212 22.2962 27.5996 22.0137C26.278 21.7402 25.2435 21.2298 24.4961 20.4824C23.7578 19.735 23.2383 18.6595 22.9375 17.2559C22.6458 15.8522 22.5 14.0247 22.5 11.7734V11.2266C22.5 9.36719 22.5911 7.80859 22.7734 6.55078C22.9557 5.28385 23.2702 4.25391 23.7168 3.46094C24.1634 2.66797 24.7695 2.06185 25.5352 1.64258C26.3099 1.22331 27.2806 0.940755 28.4473 0.794922C29.6139 0.639974 31.0176 0.5625 32.6582 0.5625H38.168C39.8086 0.5625 41.2122 0.639974 42.3789 0.794922C43.5456 0.940755 44.5117 1.22331 45.2773 1.64258C46.0521 2.06185 46.6628 2.66797 47.1094 3.46094C47.556 4.25391 47.8704 5.28385 48.0527 6.55078C48.235 7.80859 48.3262 9.36719 48.3262 11.2266V11.7734C48.3262 14.0247 48.1758 15.8522 47.875 17.2559C47.5833 18.6595 47.0638 19.735 46.3164 20.4824C45.5781 21.2298 44.5482 21.7402 43.2266 22.0137C41.9049 22.2962 40.2188 22.4375 38.168 22.4375H32.6582ZM32.6582 20.168H38.168C39.4714 20.168 40.5697 20.1224 41.4629 20.0312C42.3561 19.9401 43.0807 19.7441 43.6367 19.4434C44.2018 19.1426 44.6302 18.6868 44.9219 18.0762C45.2227 17.4655 45.4277 16.6497 45.5371 15.6289C45.6465 14.6081 45.7012 13.3229 45.7012 11.7734V11.2266C45.7012 9.6224 45.6465 8.30078 45.5371 7.26172C45.4277 6.22266 45.2227 5.40234 44.9219 4.80078C44.6302 4.19922 44.2018 3.76172 43.6367 3.48828C43.0807 3.20573 42.3561 3.02799 41.4629 2.95508C40.5697 2.87305 39.4714 2.83203 38.168 2.83203H32.6582C31.3548 2.83203 30.2565 2.87305 29.3633 2.95508C28.4701 3.02799 27.7409 3.20573 27.1758 3.48828C26.6198 3.76172 26.1914 4.19922 25.8906 4.80078C25.599 5.40234 25.3984 6.22266 25.2891 7.26172C25.1797 8.30078 25.125 9.6224 25.125 11.2266V11.7734C25.125 13.3229 25.1797 14.6081 25.2891 15.6289C25.3984 16.6497 25.599 17.4655 25.8906 18.0762C26.1914 18.6868 26.6198 19.1426 27.1758 19.4434C27.7409 19.7441 28.4701 19.9401 29.3633 20.0312C30.2565 20.1224 31.3548 20.168 32.6582 20.168Z" fill="white"/>
<path d="M0.625 22V1H3.25V19.8125H19.875V22H0.625Z" fill="white"/>
</svg>
