<svg width="204" height="38" viewBox="0 0 204 38" fill="none" xmlns="http://www.w3.org/2000/svg">
<g clip-path="url(#clip0_53_633)">
<path d="M44.2406 10.2686C43.7128 10.7866 43.0835 11.0432 42.3548 11.0432C41.6262 11.0432 41.0041 10.7842 40.4885 10.2686C39.9705 9.75299 39.7139 9.12846 39.7139 8.40225C39.7139 7.67604 39.9729 7.08781 40.4885 6.56979C41.0041 6.05418 41.6286 5.79517 42.3548 5.79517C43.081 5.79517 43.7104 6.05418 44.2406 6.56979C44.7683 7.08781 45.0321 7.69783 45.0321 8.40225C45.0321 9.10667 44.7683 9.75299 44.2406 10.2686ZM40.382 30.7743V13.5825H44.3277V30.7767H40.382V30.7743Z" fill="white"/>
<path d="M58.0699 13.3354C60.0428 13.3354 61.5872 13.9334 62.7031 15.1316C63.8191 16.3298 64.3758 18.1744 64.3758 20.6629V30.7765H60.4301V21.6868C60.4301 19.9488 60.1178 18.7166 59.4957 17.988C58.8736 17.2594 57.9392 16.8963 56.695 16.8963C55.3321 16.8963 54.2525 17.3538 53.4537 18.2712C52.6548 19.1863 52.2554 20.4789 52.2554 22.1468V30.7789H48.3097V13.5824H52.2554V15.9788H52.2917C53.7708 14.2166 55.6976 13.3354 58.0699 13.3354Z" fill="white"/>
<path d="M78.4716 13.5825H82.7005L75.9008 30.7767H72.1318L65.2958 13.5825H69.4884L73.9861 25.8482H74.0224L78.474 13.5825H78.4716Z" fill="white"/>
<path d="M91.5069 31.0573C88.8296 31.0573 86.6559 30.2246 84.988 28.5568C83.3201 26.8889 82.4874 24.7756 82.4874 22.2145C82.4874 19.6535 83.3201 17.5353 84.988 15.8554C86.6559 14.1754 88.8296 13.3354 91.5069 13.3354C94.1842 13.3354 96.3289 14.1585 98.0089 15.8021C99.6889 17.4458 100.529 19.5833 100.529 22.2145C100.529 24.8458 99.6889 26.9494 98.0089 28.5931C96.3289 30.2367 94.1624 31.0597 91.5069 31.0597V31.0573ZM91.5069 27.4626C92.9158 27.4626 94.1019 26.9688 95.0653 25.9836C96.0288 24.9959 96.5105 23.7396 96.5105 22.2121C96.5105 20.6847 96.036 19.3581 95.0823 18.3705C94.1309 17.3828 92.9375 16.8914 91.5069 16.8914C90.0763 16.8914 88.8224 17.3974 87.8952 18.4068C86.9681 19.4162 86.5034 20.6847 86.5034 22.2121C86.5034 23.7396 86.973 24.9378 87.9122 25.9472C88.8514 26.9567 90.0497 27.4626 91.5069 27.4626Z" fill="white"/>
<path d="M107.346 10.2686C106.818 10.7866 106.188 11.0432 105.46 11.0432C104.731 11.0432 104.109 10.7842 103.593 10.2686C103.075 9.75299 102.819 9.12846 102.819 8.40225C102.819 7.67604 103.078 7.08781 103.593 6.56979C104.109 6.05418 104.734 5.79517 105.46 5.79517C106.186 5.79517 106.815 6.05418 107.346 6.56979C107.873 7.08781 108.137 7.69783 108.137 8.40225C108.137 9.10667 107.873 9.75299 107.346 10.2686ZM103.487 30.7743V13.5825H107.433V30.7767H103.487V30.7743Z" fill="white"/>
<path d="M119.166 31.0573C116.605 31.0573 114.504 30.2343 112.86 28.5906C111.216 26.947 110.393 24.8192 110.393 22.2121C110.393 19.605 111.226 17.4433 112.894 15.7997C114.562 14.156 116.699 13.333 119.306 13.333C120.691 13.333 122.032 13.609 123.322 14.1609C124.615 14.7128 125.682 15.5068 126.53 16.5404L123.852 18.8667C122.724 17.5523 121.279 16.8938 119.519 16.8938C117.992 16.8938 116.76 17.3804 115.82 18.3559C114.881 19.3315 114.412 20.6048 114.412 22.1782C114.412 23.7517 114.881 25.0274 115.82 26.0005C116.76 26.976 117.992 27.4626 119.519 27.4626C121.303 27.4626 122.76 26.8526 123.889 25.6301L126.602 28.0266C125.828 28.9198 124.787 29.6485 123.484 30.2101C122.182 30.7741 120.742 31.0549 119.168 31.0549L119.166 31.0573Z" fill="white"/>
<path d="M144.464 21.9678C144.464 22.3915 144.428 22.9192 144.358 23.5534H131.814C132.073 24.7758 132.637 25.732 133.506 26.4243C134.375 27.1166 135.445 27.4628 136.713 27.4628C138.497 27.4628 139.93 26.7923 141.013 25.4536L143.76 27.8138C142.092 29.9755 139.674 31.0551 136.5 31.0551C133.963 31.0551 131.867 30.2393 130.211 28.6054C128.556 26.9738 127.728 24.8291 127.728 22.176C127.728 19.5229 128.522 17.4436 130.107 15.7975C131.693 14.1538 133.695 13.3308 136.115 13.3308C138.536 13.3308 140.649 14.1369 142.177 15.7442C143.704 17.354 144.467 19.4261 144.467 21.963L144.464 21.9678ZM139.037 17.8285C138.333 17.2063 137.427 16.8941 136.324 16.8941C135.22 16.8941 134.273 17.1991 133.487 17.8091C132.7 18.4191 132.165 19.2784 131.884 20.3823H140.482C140.223 19.3027 139.742 18.4506 139.037 17.8285Z" fill="#20CE65"/>
<path d="M159.933 4.84375H163.845V30.7766H160.076V28.4866H160.005C158.688 30.2005 156.834 31.0574 154.438 31.0574C152.041 31.0574 150.022 30.2465 148.449 28.627C146.875 27.0052 146.089 24.8798 146.089 22.2485C146.089 19.6172 146.883 17.533 148.468 15.8531C150.054 14.1731 152.032 13.3331 154.406 13.3331C156.781 13.3331 158.529 14.1077 159.867 15.6594H159.938V4.84375H159.933ZM151.494 26.02C152.421 26.9834 153.603 27.4651 155.036 27.4651C156.469 27.4651 157.667 26.9834 158.63 26.02C159.594 25.0565 160.076 23.8123 160.076 22.2848C160.076 20.7574 159.606 19.4478 158.667 18.4262C157.727 17.4047 156.529 16.8939 155.072 16.8939C153.615 16.8939 152.482 17.3878 151.53 18.373C150.579 19.3606 150.102 20.663 150.102 22.2848C150.102 23.8123 150.567 25.0565 151.494 26.02Z" fill="#20CE65"/>
<path d="M180.087 13.5825H184.033V29.0144C184.033 31.7861 183.329 33.9769 181.92 35.5866C180.511 37.1964 178.291 38 175.26 38C172.583 38 170.245 37.4021 168.248 36.2039L169.199 32.752C170.303 33.3378 171.271 33.7687 172.106 34.0374C172.939 34.3061 173.922 34.4416 175.047 34.4416C176.669 34.4416 177.926 34.0374 178.816 33.2264C179.71 32.4155 180.155 31.4109 180.155 30.2127V28.3802H180.119C178.756 29.7891 177.006 30.4935 174.868 30.4935C172.448 30.4935 170.446 29.7068 168.86 28.1333C167.275 26.5599 166.481 24.5168 166.481 22.0017C166.481 19.4866 167.25 17.4096 168.788 15.766C170.325 14.1224 172.281 13.2993 174.655 13.2993C176.817 13.2993 178.601 14.0037 180.01 15.4126H180.08V13.5801L180.087 13.5825ZM175.401 26.8673C176.834 26.8673 178.003 26.3928 178.906 25.4415C179.809 24.4902 180.262 23.2871 180.262 21.8298C180.262 20.3726 179.797 19.2227 178.87 18.3053C177.943 17.3903 176.785 16.9304 175.398 16.9304C173.941 16.9304 172.762 17.3951 171.857 18.3223C170.952 19.2494 170.501 20.4428 170.501 21.8976C170.501 23.3524 170.966 24.6064 171.893 25.5093C172.82 26.4146 173.99 26.8649 175.398 26.8649L175.401 26.8673Z" fill="#20CE65"/>
<path d="M203.273 21.9678C203.273 22.3915 203.236 22.9192 203.166 23.5534H190.622C190.881 24.7758 191.445 25.732 192.314 26.4243C193.183 27.1166 194.253 27.4628 195.522 27.4628C197.306 27.4628 198.739 26.7923 199.821 25.4536L202.568 27.8138C200.9 29.9755 198.482 31.0551 195.309 31.0551C192.772 31.0551 190.675 30.2393 189.02 28.6054C187.364 26.9738 186.536 24.8291 186.536 22.176C186.536 19.5229 187.33 17.4436 188.916 15.7975C190.501 14.1538 192.503 13.3308 194.924 13.3308C197.344 13.3308 199.458 14.1369 200.985 15.7442C202.513 17.354 203.275 19.4261 203.275 21.963L203.273 21.9678ZM197.845 17.8285C197.141 17.2063 196.236 16.8941 195.132 16.8941C194.028 16.8941 193.082 17.1991 192.295 17.8091C191.508 18.4191 190.973 19.2784 190.692 20.3823H199.291C199.032 19.3027 198.55 18.4506 197.845 17.8285Z" fill="#20CE65"/>
<path d="M33.2361 10.6801V26.9471C33.2361 27.8428 32.7519 28.69 31.9773 29.1257L20.2128 35.9279L17.8889 37.2835C17.1143 37.7434 16.146 37.7434 15.3472 37.2835L13.0475 35.9521L1.25876 29.1282C0.484138 28.6924 0 27.8452 0 26.9495V10.6801C0 9.78442 0.484138 8.93718 1.25876 8.47725L15.3472 0.343728C16.1218 -0.116204 17.0901 -0.116204 17.8647 0.343728L31.9773 8.47725C32.7519 8.93718 33.2361 9.76021 33.2361 10.6801Z" fill="#20CE65"/>
<path d="M22.2147 28.6392H7.97864V30.2562H22.2147V28.6392Z" fill="white"/>
<path d="M17.659 15.616H12.67C12.2221 15.616 11.8615 15.9791 11.8615 16.4245C11.8615 16.8699 12.2246 17.233 12.67 17.233H17.659C18.1068 17.233 18.4675 16.8699 18.4675 16.4245C18.4675 15.9791 18.1044 15.616 17.659 15.616Z" fill="white"/>
<path d="M21.4329 19.3921H12.67C12.2221 19.3921 11.8615 19.7552 11.8615 20.2006C11.8615 20.646 12.2246 21.0091 12.67 21.0091H21.4329C21.8807 21.0091 22.2414 20.646 22.2414 20.2006C22.2414 19.7552 21.8783 19.3921 21.4329 19.3921Z" fill="white"/>
<path d="M25.7828 8.48938C25.4923 8.35866 25.1534 8.40949 24.9138 8.62009L22.648 10.6244L20.3798 8.59589C20.0724 8.31993 19.6076 8.31993 19.3002 8.59589L17.0344 10.622L14.7687 8.59589C14.4612 8.31993 13.9965 8.31993 13.6914 8.59589L11.4233 10.6244L9.15749 8.62009C8.92027 8.40949 8.57895 8.35866 8.28847 8.48938C7.99798 8.62009 7.81159 8.90815 7.81159 9.22769V23.626H5.06168C4.61386 23.626 4.25317 23.9891 4.25317 24.4345V26.4025C4.25317 28.5279 5.98397 30.2586 8.10933 30.2586V28.6416C6.87478 28.6416 5.87262 27.637 5.87262 26.4049V25.2454H18.5449V26.4049C18.5449 28.5303 20.2757 30.2611 22.4011 30.2611C24.5265 30.2611 26.2573 28.5303 26.2573 26.4049V9.22769C26.2573 8.91057 26.0709 8.62009 25.7804 8.48938H25.7828ZM24.6427 26.4025C24.6427 27.637 23.6381 28.6392 22.4059 28.6392C21.1738 28.6392 20.1692 27.6346 20.1692 26.4025V24.4345C20.1692 23.9866 19.8061 23.626 19.3607 23.626H9.43829V11.0238L10.898 12.3141C11.2054 12.5852 11.6677 12.5852 11.9728 12.3116L14.2385 10.2855L16.5043 12.3116C16.8117 12.5876 17.2765 12.5876 17.5839 12.3116L19.8497 10.2855L22.1154 12.3116C22.4205 12.5852 22.8828 12.5852 23.1902 12.3141L24.6499 11.0238V26.4025H24.6427Z" fill="white"/>
</g>
<defs>
<clipPath id="clip0_53_633">
<rect width="203.273" height="38" fill="white"/>
</clipPath>
</defs>
</svg>
