<svg width="128" height="46" viewBox="0 0 128 46" fill="none" xmlns="http://www.w3.org/2000/svg">
<path d="M57.0356 38.7645C55.2621 38.7645 53.875 38.1901 52.8741 37.0501C51.8732 35.9014 51.3728 34.2135 51.3728 31.9778V21.9568H48.8706V17.9713H51.3728V11.1846L56.0347 10.6809V17.9713H61.9873V21.9568H56.0347V31.5094C56.0347 32.5433 56.184 33.2768 56.4913 33.7098C56.7986 34.1428 57.299 34.3637 57.9926 34.3637C58.9057 34.3637 59.9065 34.0721 60.9952 33.48L62.2068 37.545C60.7318 38.358 59.011 38.7645 57.0444 38.7645H57.0356Z" fill="white"/>
<path d="M82.1451 27.9482C82.1451 28.4519 82.1012 29.0793 82.0222 29.8304H67.1935C67.5008 31.2797 68.168 32.4196 69.1953 33.2503C70.2225 34.0721 71.4867 34.4875 72.988 34.4875C75.0951 34.4875 76.7896 33.6922 78.0714 32.1015L81.3198 34.9116C79.3444 37.4832 76.4911 38.7645 72.7422 38.7645C69.7396 38.7645 67.2638 37.7925 65.3059 35.8484C63.3481 33.9042 62.3735 31.3592 62.3735 28.1956C62.3735 25.032 63.3129 22.5665 65.183 20.6047C67.053 18.6518 69.4235 17.6709 72.2857 17.6709C75.1478 17.6709 77.6412 18.6253 79.4498 20.5429C81.2584 22.4605 82.1539 24.926 82.1539 27.9393L82.1451 27.9482ZM75.7273 23.026C74.8932 22.2837 73.8221 21.9126 72.5227 21.9126C71.2233 21.9126 70.0996 22.2749 69.1689 22.9995C68.2383 23.7242 67.6062 24.7492 67.2725 26.0571H77.4305C77.1232 24.7757 76.5525 23.7595 75.7273 23.0172V23.026Z" fill="white"/>
<path d="M85.6045 38.4287V7.57031H90.2664V38.4198H85.6045V38.4287Z" fill="white"/>
<path d="M100.925 38.7645C99.1425 38.7645 97.7553 38.1901 96.7632 37.0501C95.7624 35.9014 95.2619 34.2135 95.2619 31.9778V21.9568H92.7598V17.9713H95.2619V11.1846L99.9239 10.6809V17.9713H105.876V21.9568H99.9239V31.5094C99.9239 32.5433 100.073 33.2768 100.38 33.7098C100.688 34.1428 101.188 34.3637 101.882 34.3637C102.795 34.3637 103.796 34.0721 104.884 33.48L106.096 37.545C104.621 38.358 102.9 38.7645 100.934 38.7645H100.925Z" fill="white"/>
<path d="M116.921 38.7645C113.752 38.7645 111.188 37.7747 109.213 35.7864C107.237 33.7981 106.254 31.2885 106.254 28.2398C106.254 25.191 107.237 22.6725 109.213 20.6754C111.188 18.6783 113.752 17.6797 116.921 17.6797C120.091 17.6797 122.619 18.6606 124.603 20.6135C126.587 22.5665 127.579 25.1115 127.579 28.2398C127.579 31.368 126.587 33.8688 124.603 35.8306C122.619 37.7836 120.055 38.7645 116.921 38.7645ZM116.921 34.4874C118.589 34.4874 119.985 33.9042 121.126 32.7289C122.268 31.5536 122.83 30.0602 122.83 28.2398C122.83 26.4194 122.268 24.8464 121.144 23.6711C120.02 22.4958 118.607 21.9126 116.921 21.9126C115.235 21.9126 113.752 22.5135 112.654 23.7153C111.557 24.9171 111.012 26.4282 111.012 28.2398C111.012 30.0513 111.566 31.4829 112.681 32.6847C113.787 33.8865 115.209 34.4874 116.93 34.4874H116.921Z" fill="white"/>
<path d="M40.4174 13.0384V32.9505C40.4174 34.0494 39.8278 35.0713 38.878 35.6318L24.5758 43.9394L21.7481 45.5878C20.7982 46.1372 19.63 46.1372 18.6693 45.5878L15.8853 43.9724L1.5394 35.6318C0.589556 35.0823 0 34.0603 0 32.9505V13.0384C0 11.9395 0.589556 10.9066 1.5394 10.3571L18.6693 0.412087C19.6191 -0.137362 20.7982 -0.137362 21.7481 0.412087L38.878 10.3681C39.8278 10.9176 40.4174 11.9505 40.4174 13.0494V13.0384Z" fill="#683CC5"/>
<path d="M31.3774 20.4782C31.3774 21.8188 31.159 23.0826 30.7223 24.2364C30.4166 25.1265 30.0127 25.9617 29.5104 26.7529C28.3204 28.5441 26.5736 29.9946 24.5756 30.8628V43.9397L21.7479 45.588C20.7981 46.1375 19.6299 46.1375 18.6691 45.588L15.8851 43.9726V30.8628C13.8654 29.9946 12.1513 28.5441 10.9285 26.7529C10.4044 25.9727 10.0005 25.1375 9.68387 24.2364C9.24716 23.0716 9.02881 21.8079 9.02881 20.4782C9.02881 19.5221 9.15982 18.5771 9.40001 17.687C9.85855 15.7859 10.8302 14.0826 12.1404 12.72V20.8079L18.0687 24.2364L20.2195 25.4782L22.3703 24.2364L28.2767 20.8079V12.72C29.5869 14.0716 30.5476 15.7749 30.9952 17.687C31.2573 18.5771 31.3664 19.5221 31.3664 20.4782H31.3774Z" fill="white"/>
<path d="M25.6124 13.1377V19.4014L20.23 22.5553L14.8257 19.4014V13.1377L17.8062 11.4234L20.23 10.0059L22.6318 11.4015L25.6124 13.1377Z" fill="white"/>
</svg>
