<svg width="333" height="61" viewBox="0 0 333 61" fill="none" xmlns="http://www.w3.org/2000/svg">
<g clip-path="url(#clip0_54_1819)">
<path d="M108.017 15.1213C110.032 15.0674 112.035 15.4476 113.889 16.2362C115.744 17.0247 117.408 18.2031 118.767 19.6913C121.622 22.7759 123.149 26.8602 123.017 31.0613C123.106 33.1244 122.772 35.184 122.036 37.1135C121.3 39.0429 120.177 40.8015 118.737 42.2813C117.338 43.6905 115.665 44.7982 113.821 45.536C111.977 46.2739 110.002 46.6262 108.017 46.5713C106.008 46.6389 104.012 46.228 102.194 45.3726C100.375 44.5171 98.7858 43.2416 97.557 41.6513H97.437V60.9413H92.437V15.0713H97.497V20.0713H97.557C98.7904 18.4839 100.38 17.2088 102.197 16.3489C104.014 15.4891 106.007 15.0685 108.017 15.1213ZM107.517 41.9013C108.907 41.9529 110.293 41.7076 111.581 41.1816C112.869 40.6557 114.03 39.8613 114.987 38.8513C116.924 36.7292 117.955 33.9331 117.857 31.0613C117.92 29.5751 117.687 28.0911 117.172 26.6955C116.657 25.3 115.87 24.0205 114.857 22.9313C112.39 20.3513 109.127 19.388 105.067 20.0413C104.065 20.2043 103.116 20.6017 102.297 21.2013C100.708 22.2983 99.4188 23.7748 98.5456 25.4967C97.6724 27.2186 97.2432 29.1314 97.297 31.0613C97.2467 32.4949 97.4865 33.9238 98.002 35.2625C98.5175 36.6011 99.2981 37.8218 100.297 38.8513C101.226 39.8286 102.347 40.6039 103.589 41.1287C104.831 41.6534 106.169 41.9165 107.517 41.9013Z" fill="white"/>
<path d="M139.657 15.1213C140.078 15.1094 140.499 15.1294 140.917 15.1813V20.8513C139.997 20.7713 139.317 20.7313 138.917 20.7313C137.63 20.6799 136.348 20.9236 135.169 21.4435C133.991 21.9635 132.947 22.746 132.117 23.7313C130.369 25.9024 129.473 28.6367 129.597 31.4213V46.5613H124.487V15.0713H129.597V20.9113H129.657C130.64 19.1284 132.091 17.6473 133.852 16.6271C135.614 15.6069 137.621 15.0863 139.657 15.1213Z" fill="white"/>
<path d="M158.157 46.5713C156.064 46.6605 153.975 46.3167 152.021 45.5614C150.067 44.806 148.29 43.6555 146.802 42.1817C145.313 40.708 144.144 38.9427 143.369 36.9965C142.594 35.0503 142.229 32.9651 142.297 30.8713C142.364 27.7542 143.335 24.7237 145.092 22.1477C146.848 19.5718 149.315 17.5613 152.192 16.3604C155.069 15.1595 158.233 14.8198 161.3 15.3827C164.367 15.9456 167.204 17.3868 169.467 19.5313C170.952 21.0122 172.116 22.7837 172.885 24.735C173.654 26.6862 174.012 28.7753 173.937 30.8713C174.015 32.9647 173.658 35.0515 172.889 36.9999C172.119 38.9483 170.954 40.716 169.467 42.1913C167.973 43.6447 166.202 44.7817 164.259 45.5343C162.315 46.2869 160.24 46.6396 158.157 46.5713ZM158.157 41.9013C159.558 41.9337 160.951 41.6749 162.247 41.1413C163.543 40.6077 164.715 39.8109 165.687 38.8013C166.7 37.7551 167.493 36.5155 168.017 35.1565C168.541 33.7976 168.786 32.347 168.737 30.8913C168.796 29.4342 168.56 27.9803 168.045 26.6161C167.529 25.252 166.745 24.0056 165.737 22.9513C163.688 20.9536 160.934 19.8439 158.072 19.8626C155.21 19.8813 152.47 21.027 150.447 23.0513C148.45 25.1653 147.371 27.9842 147.447 30.8913C147.369 33.8019 148.448 36.6248 150.447 38.7413C151.435 39.7841 152.633 40.6051 153.962 41.1499C155.292 41.6946 156.721 41.9508 158.157 41.9013Z" fill="white"/>
<path d="M85.107 46.6213L76.647 35.0813H76.367L67.937 46.6213H61.937L73.457 30.7313L61.977 15.0713H68.137L76.477 26.5513L84.787 15.0513H90.937L79.517 30.7313L91.067 46.6213H85.107Z" fill="white"/>
<path d="M264.207 0.80127H269.367V46.4313H264.457V41.5313H264.297C263.088 43.2182 261.482 44.5814 259.621 45.5005C257.76 46.4196 255.702 46.8664 253.627 46.8013C251.61 46.8602 249.603 46.5055 247.728 45.7591C245.853 45.0127 244.151 43.8904 242.727 42.4613C241.27 40.9665 240.134 39.1893 239.389 37.239C238.645 35.2888 238.307 33.2069 238.397 31.1213C238.267 26.8724 239.811 22.7425 242.697 19.6213C244.071 18.1181 245.751 16.9276 247.625 16.1305C249.498 15.3334 251.522 14.9483 253.557 15.0013C255.591 14.9311 257.613 15.3483 259.453 16.2181C261.294 17.0878 262.9 18.3849 264.137 20.0013H264.207V0.80127ZM254.067 42.1013C255.42 42.1085 256.759 41.838 258.003 41.3065C259.246 40.7749 260.368 39.9938 261.297 39.0113C262.314 37.9753 263.109 36.7435 263.635 35.3906C264.161 34.0377 264.407 32.592 264.357 31.1413C264.409 29.2032 263.98 27.2825 263.107 25.5512C262.234 23.82 260.946 22.3322 259.357 21.2213C258.525 20.6039 257.559 20.1926 256.537 20.0213C252.457 19.3546 249.144 20.3313 246.597 22.9513C245.582 24.0511 244.794 25.341 244.279 26.7466C243.764 28.1522 243.532 29.6457 243.597 31.1413C243.492 34.0438 244.534 36.871 246.497 39.0113C247.465 40.0368 248.642 40.8431 249.947 41.3761C251.253 41.9091 252.658 42.1563 254.067 42.1013Z" fill="#1DBFBF"/>
<path d="M201.107 0.80127H206.297V46.4313H201.397V41.5313H201.267C200.052 43.2268 198.436 44.5954 196.564 45.5149C194.692 46.4345 192.621 46.8764 190.537 46.8013C188.52 46.8602 186.512 46.5055 184.638 45.7591C182.763 45.0127 181.061 43.8904 179.637 42.4613C178.18 40.9696 177.044 39.1961 176.298 37.2495C175.551 35.3029 175.211 33.2243 175.297 31.1413C175.167 26.8924 176.711 22.7625 179.597 19.6413C180.969 18.137 182.65 16.9459 184.524 16.1487C186.398 15.3515 188.421 14.967 190.457 15.0213C192.491 14.9519 194.512 15.3695 196.353 16.2392C198.193 17.1089 199.799 18.4056 201.037 20.0213H201.097L201.107 0.80127ZM190.977 42.1013C192.344 42.1203 193.701 41.8555 194.961 41.3237C196.221 40.7918 197.357 40.0044 198.297 39.0113C199.303 37.9706 200.088 36.7366 200.604 35.3839C201.119 34.0311 201.355 32.5878 201.297 31.1413C201.352 29.2028 200.923 27.2811 200.05 25.5494C199.177 23.8177 197.888 22.3303 196.297 21.2213C195.467 20.6005 194.499 20.1889 193.477 20.0213C189.41 19.3546 186.1 20.3313 183.547 22.9513C182.531 24.0511 181.743 25.341 181.229 26.7466C180.714 28.1522 180.482 29.6457 180.547 31.1413C180.442 34.0438 181.483 36.871 183.447 39.0113C184.41 40.0316 185.58 40.8349 186.879 41.3677C188.177 41.9005 189.574 42.1506 190.977 42.1013Z" fill="white"/>
<path d="M296.377 15.4012H301.477V45.5712C301.477 50.3245 300.233 54.0712 297.747 56.8112C295.26 59.5512 291.443 60.9212 286.297 60.9212C281.859 60.9862 277.491 59.8197 273.677 57.5512L274.837 52.8012C278.216 54.825 282.059 55.9443 285.997 56.0512C289.33 56.0512 291.91 55.1912 293.737 53.4712C294.623 52.633 295.323 51.6173 295.79 50.4904C296.257 49.3634 296.48 48.1506 296.447 46.9312V41.0812H296.297C295.039 42.6445 293.432 43.8913 291.605 44.7214C289.778 45.5515 287.782 45.9419 285.777 45.8612C283.797 45.91 281.828 45.5568 279.989 44.8229C278.15 44.089 276.479 42.9895 275.077 41.5912C273.629 40.141 272.498 38.4072 271.753 36.4987C271.007 34.5903 270.665 32.5483 270.747 30.5012C270.693 28.4795 271.04 26.4672 271.765 24.5796C272.491 22.692 273.583 20.9662 274.977 19.5012C276.324 18.0614 277.96 16.9225 279.778 16.1591C281.597 15.3957 283.555 15.025 285.527 15.0712C287.557 14.9937 289.579 15.373 291.443 16.1813C293.307 16.9896 294.966 18.2061 296.297 19.7412H296.427L296.377 15.4012ZM286.187 41.0212C287.581 41.0799 288.972 40.843 290.268 40.3259C291.564 39.8089 292.736 39.0234 293.707 38.0212C295.646 35.9208 296.674 33.1378 296.567 30.2812C296.614 28.8928 296.372 27.5097 295.856 26.2202C295.339 24.9306 294.56 23.7628 293.567 22.7912C292.588 21.8347 291.426 21.085 290.152 20.5868C288.877 20.0886 287.515 19.852 286.147 19.8912C284.792 19.8546 283.446 20.1028 282.193 20.6196C280.941 21.1363 279.811 21.9102 278.877 22.8912C277.925 23.8842 277.182 25.0575 276.691 26.3421C276.2 27.6267 275.97 28.9966 276.017 30.3712C275.95 31.799 276.176 33.2255 276.68 34.5632C277.184 35.9009 277.955 37.1218 278.947 38.1512C279.893 39.0994 281.024 39.8434 282.269 40.3371C283.514 40.8307 284.848 41.0636 286.187 41.0212Z" fill="#1DBFBF"/>
<path d="M332.117 30.4413C332.117 30.7813 332.117 31.2313 332.057 31.7813L331.987 32.5413H308.097C308.305 35.2077 309.495 37.702 311.437 39.5413C313.358 41.2951 315.887 42.2313 318.487 42.1513C320.171 42.197 321.842 41.8397 323.361 41.1092C324.879 40.3786 326.201 39.296 327.217 37.9513L330.847 41.0713C327.813 44.8913 323.63 46.8013 318.297 46.8013C316.249 46.8639 314.21 46.5027 312.309 45.7403C310.407 44.978 308.684 43.831 307.247 42.3713C305.785 40.8574 304.644 39.0636 303.893 37.0977C303.142 35.1317 302.796 33.0342 302.877 30.9313C302.724 26.7076 304.248 22.5949 307.117 19.4913C308.465 18.033 310.109 16.8784 311.938 16.1043C313.768 15.3301 315.741 14.9541 317.727 15.0013C319.673 14.9279 321.612 15.277 323.411 16.0244C325.21 16.7719 326.825 17.9 328.147 19.3313C330.857 22.382 332.28 26.3639 332.117 30.4413ZM324.027 22.0913C323.223 21.3245 322.273 20.7267 321.234 20.3334C320.194 19.9401 319.087 19.7591 317.977 19.8013C315.657 19.7462 313.399 20.5512 311.637 22.0613C309.82 23.6684 308.636 25.87 308.297 28.2713H327.027C326.729 25.9386 325.676 23.7677 324.027 22.0913Z" fill="#1DBFBF"/>
<path d="M236.967 30.4413C236.967 30.7813 236.967 31.2313 236.907 31.7813L236.837 32.5413H212.947C213.155 35.2077 214.345 37.702 216.287 39.5413C218.195 41.2829 220.704 42.2183 223.287 42.1513C224.972 42.1978 226.643 41.8409 228.161 41.1103C229.68 40.3797 231.002 39.2966 232.017 37.9513L235.657 41.0713C232.664 44.8913 228.49 46.8013 223.137 46.8013C221.089 46.8639 219.051 46.5027 217.149 45.7403C215.248 44.978 213.524 43.831 212.087 42.3713C210.625 40.8574 209.484 39.0636 208.733 37.0977C207.982 35.1317 207.637 33.0342 207.717 30.9313C207.564 26.7076 209.088 22.5949 211.957 19.4913C213.306 18.033 214.949 16.8784 216.779 16.1043C218.608 15.3301 220.581 14.9541 222.567 15.0013C224.513 14.9279 226.453 15.277 228.251 16.0244C230.05 16.7719 231.666 17.9 232.987 19.3313C235.701 22.3805 237.127 26.3626 236.967 30.4413ZM228.877 22.0913C228.071 21.3237 227.12 20.7256 226.079 20.3322C225.038 19.9389 223.929 19.7583 222.817 19.8013C220.498 19.75 218.241 20.5545 216.477 22.0613C214.664 23.6706 213.48 25.8711 213.137 28.2713H231.867C231.573 25.9398 230.522 23.7691 228.877 22.0913Z" fill="#1DBFBF"/>
<path d="M49.927 41.6612L47.387 43.1312L45.017 44.5012L28.757 35.1212L26.417 33.7712L28.757 32.4212L31.337 30.9312L47.387 40.2012L49.927 41.6612Z" fill="white"/>
<path d="M26.417 33.7712L23.847 35.2612L7.72703 44.5612L5.20703 43.1112V40.3412L21.507 30.9312L23.847 32.2812L26.417 33.7712Z" fill="white"/>
<path d="M5.20687 21.5213L21.5069 30.9313L23.8469 32.2813L26.4169 33.8013L28.7569 32.4513L31.2969 30.9313L47.3469 21.6613L49.9669 20.1513L52.2969 18.8013V15.8013L50.0069 14.4813L47.3869 12.9613L31.2369 3.64127L28.7569 2.21127L26.2969 0.80127L23.8469 2.23127L21.4069 3.64127L5.20687 12.9913L2.73688 14.4213L0.296875 15.8013V45.9413L2.81687 47.4013L5.20687 48.8013L21.4069 58.1513L23.8469 59.5613L26.2969 60.9713L28.7369 59.5713L31.2169 58.1413L47.3869 48.8013L49.9269 47.3313L52.2969 45.9713V43.0313L49.9269 41.6613L47.3869 43.1313L45.0169 44.5013L28.7569 53.8913L26.2969 55.2913L23.8269 53.8713L7.72687 44.5613L5.20687 43.1113V21.5213ZM23.8469 7.91127L26.2969 6.48127L28.7369 7.88127L45.0969 17.3113L28.7569 26.8013L26.4169 28.1413L23.8469 26.6013L7.65688 17.2613L23.8469 7.91127Z" fill="#26BDBD"/>
<path d="M28.7567 7.8812V26.7512L26.4167 28.0912L23.8467 26.6012V7.9112L26.3167 6.4812L28.7567 7.8812Z" fill="white"/>
</g>
<defs>
<clipPath id="clip0_54_1819">
<rect width="331.82" height="60.17" fill="white" transform="translate(0.296875 0.80127)"/>
</clipPath>
</defs>
</svg>
